HIERARCHY
ROOT Hips
{
	OFFSET 0.0 0.9873459935188293 0.0
	CHANNELS 6 Xposition Yposition Zposition Zrotation Yrotation Xrotation
	JOINT LeftUpperLeg
	{
		OFFSET 0.05442648380994797 -0.1202470064163208 -0.010071414522826672
		CHANNELS 3 Zrotation Yrotation Xrotation
		JOINT LeftLowerLeg
		{
			OFFSET 0.08043769747018814 -0.4895855784416199 0.014373186975717545
			CHANNELS 3 Zrotation Yrotation Xrotation
			JOINT LeftFoot
			{
				OFFSET -0.004680849611759186 -0.9205548167228699 0.009911485016345978
				CHANNELS 3 Zrotation Yrotation Xrotation
				JOINT LeftToe
				{
					OFFSET 0.05180229991674423 -0.9753370136022568 0.1283368468284607
					CHANNELS 3 Zrotation Yrotation Xrotation
					End Site
					{
						OFFSET 0 0 0
					}
				}
			}
		}
	}
	JOINT RightUpperLeg
	{
		OFFSET -0.06814553588628769 -0.12192082405090332 -0.030690601095557213
		CHANNELS 3 Zrotation Yrotation Xrotation
		JOINT RightLowerLeg
		{
			OFFSET -0.13095621764659882 -0.479042112827301 -0.028491251170635223
			CHANNELS 3 Zrotation Yrotation Xrotation
			JOINT RightFoot
			{
				OFFSET -0.11093854159116745 -0.9092138409614563 -0.0031028389930725098
				CHANNELS 3 Zrotation Yrotation Xrotation
				JOINT RightToe
				{
					OFFSET -0.17304103076457977 -0.9686538334935904 0.1187656968832016
					CHANNELS 3 Zrotation Yrotation Xrotation
					End Site
					{
						OFFSET 0 0 0
					}
				}
			}
		}
	}
	JOINT Spine
	{
		OFFSET 0.004814489278942347 0.08302587270736694 -0.02877936139702797
		CHANNELS 3 Zrotation Yrotation Xrotation
		JOINT Chest
		{
			OFFSET 0.001844796002842486 0.22652465105056763 0.04118312895298004
			CHANNELS 3 Zrotation Yrotation Xrotation
			JOINT UpperChest
			{
				OFFSET 0.00531152356415987 0.28055447340011597 0.07281166315078735
				CHANNELS 3 Zrotation Yrotation Xrotation
				JOINT Neck
				{
					OFFSET 0.02694634348154068 0.48778480291366577 0.16064664721488953
					CHANNELS 3 Zrotation Yrotation Xrotation
					JOINT Head
					{
						OFFSET 0.016176119446754456 0.4493408799171448 0.27264997363090515
						CHANNELS 3 Zrotation Yrotation Xrotation
						End Site
						{
							OFFSET 0 0 0
						}
					}
				}
				JOINT LeftShoulder
				{
					OFFSET 0.08893819898366928 0.40121597051620483 0.11541624367237091
					CHANNELS 3 Zrotation Yrotation Xrotation
					JOINT LeftUpperArm
					{
						OFFSET 0.21740801632404327 0.3908143639564514 0.11951887607574463
						CHANNELS 3 Zrotation Yrotation Xrotation
						JOINT LeftLowerArm
						{
							OFFSET 0.2526492178440094 0.18686991930007935 -0.06421224027872086
							CHANNELS 3 Zrotation Yrotation Xrotation
							JOINT LeftHand
							{
								OFFSET 0.34664613008499146 -0.03960973024368286 -0.03498915582895279
								CHANNELS 3 Zrotation Yrotation Xrotation
								End Site
								{
									OFFSET 0 0 0
								}
							}
						}
					}
				}
				JOINT RightShoulder
				{
					OFFSET -0.06480204313993454 0.4210396409034729 0.11693016439676285
					CHANNELS 3 Zrotation Yrotation Xrotation
					JOINT RightUpperArm
					{
						OFFSET -0.1846415102481842 0.4073328375816345 0.0952528715133667
						CHANNELS 3 Zrotation Yrotation Xrotation
						JOINT RightLowerArm
						{
							OFFSET -0.2047353833913803 0.16816455125808716 -0.05774266645312309
							CHANNELS 3 Zrotation Yrotation Xrotation
							JOINT RightHand
							{
								OFFSET -0.3254889249801636 -0.06552034616470337 -0.05376812070608139
								CHANNELS 3 Zrotation Yrotation Xrotation
								End Site
								{
									OFFSET 0 0 0
								}
							}
						}
					}
				}
			}
		}
	}
}
MOTION
Frames: 9
Frame Time: 0.03333333333333333
-0.040109969675540924 0.9906545877456665 -0.045621588826179504 1.611262574256713 0.04598182878440871 -3.473117961356075e-18 -1.1501427309181278 0.26569921667843066 0.0 -2.076817602259311 0.19961342929845083 0.0 1.6163051471214966 0.1347412049864265 1.4004724822475354e-17 -1.3922540932416316 0.046821026045845926 3.473253304190878e-18 -1.8518947817343154 0.04172825726343943 0.0 1.5710181434288966 -0.48534836411593396 0.0 -1.532109087602094 0.012427102716821015 0.0 -1.7135559207919575 -0.015248214098895208 0.0 1.5487893632790655 -0.5495486784471586 6.509584104401385e-17 -1.469636787850538 -0.10521976980378822 0.0 -1.758880587069776 -0.14112377844566115 1.4017138412226143e-17 1.492750540987021 -0.6214878397228925 6.827830123588116e-17 1.320486630279989 -0.5115462312745924 0.0 1.7419164748617597 -0.6004891099936047 -6.728140422889632e-17 1.4558669547673309 -0.830626386391151 0.0 1.000694101237138 -0.4463493641024521 -3.077015886751808e-17 2.0775457525383128 -0.6272106181385982 0.0 0.7305743692755681 0.12534868719680659 0.0 2.683950846414168 -0.2506182462048232 0.0 -0.0657417068297894 0.34204626793799986 1.841394954828821e-18 -2.9629783842101247 -0.09529935152847968 -1.74263074573682e-18
-0.03947938606142998 0.993882954120636 -0.036651674658060074 1.610497823969786 0.036831531414510454 0.0 -1.1574961055197965 0.24589873290012565 -1.4308193435135596e-17 -2.072441439686992 0.1705057075873584 0.0 1.6208099414330714 0.1904196392985218 0.0 -1.3991361899695969 0.050397980161799305 -3.473857741843534e-18 -1.8484076723555867 0.03663278824514604 3.471776185881878e-18 1.5721445745701281 -0.4027969932701898 -3.0170147025687246e-17 -1.5358849772985057 0.027816618898005796 1.7353948259562587e-18 -1.7137016412596704 -0.008275959364239416 0.0 1.5491005112929492 -0.4644353718932541 3.104391416860164e-17 -1.47275158990329 -0.09039518722112194 0.0 -1.7574410976956263 -0.13475726103308983 -1.4004755307020273e-17 1.4977076517158925 -0.5295822468295814 0.0 1.335138899651599 -0.4248801551144967 -3.0464204689066494e-17 1.7312337381643264 -0.5181982157991507 -3.1950223256057225e-17 1.4613373896919661 -0.726321707751609 0.0 1.0303479364818595 -0.3640169601423342 -2.970181034747345e-17 2.046393993925956 -0.5518950164663297 3.259485211534635e-17 0.7483212109879882 0.19789438200050213 -1.4154035997714523e-17 2.6496382687946616 -0.20496888942824798 0.0 -0.0526452103409568 0.35748800706155226 0.0 -2.9724889620891464 -0.10653850376381802 0.0
-0.03833264112472534 0.9977325201034546 -0.02494949847459793 1.6091971971547003 0.024982565646011867 0.0 -1.1649153973239919 0.22146593577237228 0.0 -2.068594588124806 0.13910935034540972 -7.00657823810039e-18 1.6243205061282073 0.25513227621877443 0.0 -1.4098543526182181 0.054461490643849864 3.474598601902204e-18 -1.8447992613287947 0.03303377365764382 0.0 1.5755677747691563 -0.305017444626434 0.0 -1.541043218154436 0.04926239238169039 0.0 -1.7138732724246835 0.0036261877677714605 0.0 1.5521582257597153 -0.3638623022555132 -2.9700060655685705e-17 -1.4776109404352675 -0.07006390051219968 6.955960151578794e-18 -1.7554247941654622 -0.12412052410482577 0.0 1.5058270754141028 -0.4213994526934841 3.0416489007643667e-17 1.350800310525372 -0.3227201211258859 -2.9266417907774506e-17 1.7256367362100518 -0.4200761884467634 0.0 1.470887682427884 -0.6054058167240521 0.0 1.059049222781059 -0.2658007988147406 -1.4382879218508256e-17 2.0220471179893607 -0.45921959981347227 0.0 0.757075490019872 0.28618140585088314 0.0 2.6256084833878806 -0.14155091687927435 0.0 -0.05637404367964216 0.3801459149839681 1.8680851343793757e-18 -2.976429873962773 -0.11271801093918876 -1.745802252861269e-18
-0.0366596058011055 1.001538634300232 -0.009709551930427551 1.6073832796168719 0.00968784441787962 -8.67402442407349e-19 -1.1709135774236072 0.19369031825407146 -1.4142239186894075e-17 -2.0677186841284367 0.10713007640520611 6.978903542516444e-18 1.624611711329722 0.3257095792402134 0.0 -1.423783828198641 0.05785628991785585 0.0 -1.840753779373384 0.03156011100536582 0.0 1.5789752661397354 -0.19651468202995304 0.0 -1.5477168390955713 0.07531688964575634 0.0 -1.7136466595762831 0.02079377079685063 0.0 1.555866860779121 -0.2527015960119803 -2.866599319456069e-17 -1.4840959876894098 -0.0453660719513993 0.0 -1.7527184285306816 -0.10876170065110369 -6.980137622735708e-18 1.515429737750511 -0.3015074328220644 -2.906678019183514e-17 1.3645290497062443 -0.21005024775678072 0.0 1.7245354181247121 -0.3104484754046244 2.914899484454234e-17 1.482202420448788 -0.47343671721440095 3.118580931253023e-17 1.0829801978949785 -0.1561434179728023 0.0 2.005627363582866 -0.3529387838326854 0.0 0.7522037239690238 0.38352712531896294 2.9929970662676785e-17 2.6146198092562156 -0.06537870356697617 0.0 -0.08356336550528126 0.40375452370640086 0.0 -2.96883629866212 -0.11601195109390772 0.0
-0.03455481678247452 1.0038399696350098 0.008931513875722885 1.6052053753649294 -0.008891847343168724 0.0 -1.175237770207072 0.16440114064617783 0.0 -2.070042844338876 0.07621598509191863 0.0 1.6203704419864886 0.3963584194211385 -3.0088226058798955e-17 -1.438402941955755 0.05951599079564729 0.0 -1.8368436645589445 0.03153507614944573 -1.7355863909750336e-18 1.5800020523120384 -0.08584159406149938 0.0 -1.5551544797546781 0.10182003649355442 0.0 -1.7131236252103543 0.040120364697059374 0.0 1.5581305479446024 -0.13988225304182933 0.0 -1.491235269612393 -0.020014903062445466 -1.7350709959246005e-18 -1.7498284832179254 -0.09133148200509056 0.0 1.524381023249328 -0.17834579660502392 0.0 1.3743700836282295 -0.09579955490914394 -6.970857158821899e-18 1.725665746798541 -0.19746045488661879 -2.830561177336394e-17 1.4928603294931557 -0.33860307521920485 2.9426419424787806e-17 1.1001940135199242 -0.043784301511911705 0.0 1.995948741377935 -0.24131568933874492 1.4291904436643214e-17 0.7351557304362972 0.47781581445614485 3.1256228949120186e-17 2.614091325704493 0.015273765044294896 4.337314601611198e-19 -0.12374475899389646 0.4239692732803384 3.806458454457133e-18 -2.951733483185665 -0.11638675765937356 -1.7465393327274206e-18
-0.032199714332818985 1.004274606704712 0.029652753844857216 1.602848005686857 -0.029502811456508127 0.0 -1.1778197537734667 0.1335338870287588 7.00122164409335e-18 -2.0740364603030907 0.04820964091043045 0.0 1.6117266668324566 0.4629724995432998 0.0 -1.451953807945693 0.05867495311202786 0.0 -1.83351494005348 0.03208016691000237 0.0 1.5785972735530862 0.020679278767115505 1.7350944542069335e-18 -1.5622358907906726 0.12570267716062955 0.0 -1.7127990946487863 0.058113258782641175 0.0 1.5587801898623224 -0.0319195066957112 -3.47121513410674e-18 -1.4979748262508399 0.00294644904779795 2.1684137575734287e-19 -1.747107605225567 -0.07525972552682947 0.0 1.5315026512368983 -0.05798412217909843 0.0 1.380369277985391 0.013783622491188474 0.0 1.7273366254524576 -0.08677826708441216 6.965102690882628e-18 1.501861203193831 -0.20633239618777122 1.4178530265955308e-17 1.1106885544216054 0.0643988575624681 6.95330734437657e-18 1.9912810930344853 -0.1303320001887316 0.0 0.7096221200696404 0.5601630074862922 0.0 2.6201217205716487 0.093395321783734 3.484633590660469e-18 -0.16359624087773977 0.43537361847560474 0.0 -2.9299652208211984 -0.11513881407909876 -1.7462859033692438e-18
-0.02984796278178692 1.0030604600906372 0.05062141269445419 1.6005444414846008 -0.05040190889564444 0.0 -1.1788830641130676 0.10005136052317032 0.0 -2.078108085911817 0.022861318601522518 0.0 1.5994732853311926 0.5250132706814639 0.0 -1.465049246673286 0.0544368461635667 0.0 -1.830881161206383 0.03303389550353564 0.0 1.5759848815734554 0.12389771865522925 0.0 -1.5689370449857687 0.1475765233735371 0.0 -1.7131096768944774 0.07456663521507911 6.958229457187304e-18 1.5588414079155086 0.07146559698126453 0.0 -1.5042710920290714 0.02378953807062656 0.0 -1.7446642494223228 -0.061020182393305644 3.475916166282711e-18 1.5377200779033628 0.05997213040698868 0.0 1.3842637545542598 0.1195906073090569 1.3977622107712344e-17 1.7295057923388515 0.02203502131039925 0.0 1.5104270198847605 -0.07587732633335897 6.958916819304296e-18 1.116750565669078 0.16887569088298848 -1.4078057221125095e-17 1.990088527444085 -0.020401838383313553 0.0 0.6786880561213062 0.6307541733875057 0.0 2.627950359168386 0.16541291233357258 7.034917364122537e-18 -0.19669611504908274 0.43396337942815366 -7.647795630901887e-18 -2.908208496270063 -0.11836505120895335 -1.7469468065687015e-18
-0.027727600187063217 1.000526785850525 0.07023919373750687 1.59850223680758 -0.07006041457701895 6.955958449924752e-18 -1.1790303665010755 0.06302149624935027 0.0 -2.0817635063865496 -0.000260602577925928 1.3552527616269973e-20 1.5833050638303727 0.580944715356924 0.0 -1.4782127062161625 0.04507194157256489 3.472973993260157e-18 -1.8292643103058739 0.03466512959852741 0.0 1.5720156082863466 0.22476460219190653 1.4235868314834495e-17 -1.5757728529888932 0.16851861405145852 0.0 -1.714334320951456 0.0902699448899087 6.967261565940659e-18 1.5579420859317015 0.17025141029630486 1.4081373466910927e-17 -1.5103735449269613 0.043289427378472745 3.472700319807543e-18 -1.7429251528068779 -0.04771432689076471 0.0 1.5435718165883903 0.17585493936124408 2.81903461012361e-17 1.3868132138971094 0.22255688782733096 -1.4228721126520226e-17 1.7317911473503949 0.12936121669638823 0.0 1.5190882743874772 0.05217766879314745 6.948350231643298e-18 1.119739279099257 0.2697145003704262 0.0 1.9905707709604736 0.0879704933177392 -6.965830135917692e-18 0.640387768431141 0.6887306129651471 0.0 2.6331084290157047 0.22926484218199183 0.0 -0.21814541375892785 0.4121680135296151 -7.573107769375822e-18 -2.890727976040805 -0.1333786731015698 -3.5005378766107274e-18
-0.026014290750026703 0.9977161884307861 0.08721858263015747 1.5968642589645756 -0.08716708795476036 0.0 -1.1794726236662223 0.025802438031442554 0.0 -2.085242218303259 -0.0204211277442512 -1.7350852481620997e-18 1.5645293060303986 0.6282721078239999 0.0 -1.4896135029265694 0.03152379581228559 0.0 -1.8286159729124767 0.035337336485887993 0.0 1.5660435470215985 0.31500024924566494 2.919192635287826e-17 -1.5823425561410467 0.18656643886443702 2.82457264229548e-17 -1.716087828758243 0.10323331375299727 0.0 1.5547140517996594 0.2561829766155097 2.869196016562653e-17 -1.516279520885571 0.05977133551917735 -3.475653685757047e-18 -1.7420071568179565 -0.036744555191264405 0.0 1.5470814438218317 0.27931782375421355 -2.887464908252076e-17 1.3863988822119202 0.3138993063121436 2.9181475420782893e-17 1.7327936741722951 0.22554726036441197 4.2715261380063057e-17 1.525360920974255 0.16546433574275343 -1.406995553086131e-17 1.1177819565889335 0.35698996607153677 -2.9623233397342165e-17 1.9913898314083907 0.18468176092758903 0.0 0.5931913846464522 0.727755991170151 0.0 2.6362475464494954 0.28178639335207234 0.0 -0.223876308142089 0.3623613909537924 0.0 -2.8767484788454047 -0.16169715150019304 0.0
